<svg id="Layer_1" data-name="Layer 1" xmlns="http://www.w3.org/2000/svg" viewBox="0 0 1109.43 523.3"><defs><style>.cls-1{fill:none;stroke:#000;stroke-miterlimit:10;}</style></defs><path class="cls-1" d="M3.26,677.73c117.94-88,248.47-202.62,218.33-295.66s-115.8,53.85-68.79,199,44.07,117.12,64.25,155.79c0,0-7.7-115.74,42.64-142.14,30.82-16.17,19.69,163.68,55.19,210.54,19.71,26,10.46-165.13,39.21-193.88s80.3-28.44,65.36-79.33c-14.13-48.13-99.22,12.84-51.75,95.13s114.49-66.85,120.9-74.07,133-206.78,74.06-265.76c-26-26-129.25,211.8-37.57,325.12,26.52,32.78,57.44-76.72,70.79-97.48s137.32-191.18,110-218.49S549,470,622.39,603.83c15.08,27.51,72.11-64.24,120.2-115.64l3.06-19.49S711,626,782.68,641.88s110.62-166.24,51.73-214S727.64,460.57,760.89,478,918.68,416.13,964,439.84s102,21.71,148.12-3.27" transform="translate(-2.96 -284.89)"/></svg>